runtti.ufo
<glyph name="exclam" format="2">
  <advance width="319"/>
  <unicode hex="0021"/>
  <outline>
    <contour>
      <point x="51" y="209" type="line"/>
      <point x="33" y="-39" type="line"/>
      <point x="-5" y="-6" type="line"/>
      <point x="266" y="0" type="line"/>
      <point x="214" y="-33" type="line"/>
      <point x="224" y="205" type="line"/>
      <point x="264" y="157" type="line"/>
      <point x="28" y="161" type="line"/>
    </contour>
    <contour>
      <point x="16" y="820" type="line"/>
      <point x="70" y="925" type="line"/>
      <point x="60" y="215" type="line"/>
      <point x="18" y="240" type="line"/>
      <point x="264" y="237" type="line"/>
      <point x="214" y="198" type="line"/>
      <point x="291" y="907" type="line"/>
      <point x="333" y="820" type="line"/>
    </contour>
  </outline>
</glyph>
<glyph name="ampersand" format="2">
  <advance width="720"/>
  <unicode hex="0026"/>
  <outline>
    <contour>
      <point x="458" y="114" type="line"/>
      <point x="501" y="203" type="line"/>
      <point x="380" y="142" type="line"/>
      <point x="542" y="154" type="line"/>
      <point x="131" y="212" type="line"/>
      <point x="227" y="104" type="line"/>
      <point x="240" y="414" type="line"/>
      <point x="105" y="256" type="line"/>
      <point x="412" y="423" type="line"/>
      <point x="383" y="369" type="line"/>
      <point x="373" y="536" type="line"/>
      <point x="417" y="503" type="line"/>
      <point x="213" y="525" type="line"/>
      <point x="252" y="428" type="line"/>
      <point x="278" y="683" type="line"/>
      <point x="242" y="593" type="line"/>
      <point x="373" y="667" type="line"/>
      <point x="241" y="625" type="line"/>
      <point x="558" y="597" type="line"/>
      <point x="511" y="571" type="line"/>
      <point x="570" y="860" type="line"/>
      <point x="642" y="790" type="line"/>
      <point x="218" y="801" type="line"/>
      <point x="459" y="888" type="line"/>
      <point x="-64" y="628" type="line"/>
      <point x="102" y="824" type="line"/>
      <point x="69" y="303" type="line"/>
      <point x="10" y="465" type="line"/>
      <point x="267" y="379" type="line"/>
      <point x="307" y="459" type="line"/>
      <point x="36" y="326" type="line"/>
      <point x="60" y="410" type="line"/>
      <point x="20" y="8" type="line"/>
      <point x="-92" y="114" type="line"/>
      <point x="461" y="-27" type="line"/>
      <point x="434" y="-28" type="line"/>
      <point x="793" y="132" type="line"/>
      <point x="681" y="65" type="line"/>
      <point x="601" y="394" type="line"/>
      <point x="537" y="330" type="line"/>
      <point x="783" y="308" type="line"/>
      <point x="678" y="262" type="line"/>
      <point x="717" y="556" type="line"/>
      <point x="755" y="507" type="line"/>
      <point x="436" y="504" type="line"/>
      <point x="502" y="565" type="line"/>
      <point x="388" y="425" type="line"/>
      <point x="431" y="540" type="line"/>
    </contour>
  </outline>
</glyph>
<glyph name="comma" format="2">
  <advance width="257"/>
  <unicode hex="002C"/>
  <outline>
    <contour>
      <point x="159" y="2" type="line"/>
      <point x="109" y="28" type="line"/>
      <point x="99" y="-139" type="line"/>
      <point x="72" y="-73" type="line"/>
      <point x="196" y="-89" type="line"/>
      <point x="151" y="-146" type="line"/>
      <point x="230" y="183" type="line"/>
      <point x="272" y="82" type="line"/>
      <point x="162" y="226" type="line"/>
      <point x="221" y="161" type="line"/>
      <point x="-9" y="160" type="line"/>
      <point x="43" y="193" type="line"/>
      <point x="33" y="-45" type="line"/>
      <point x="-7" y="-2" type="line"/>
    </contour>
  </outline>
</glyph>
<glyph name="zero" format="2">
  <advance width="655"/>
  <unicode hex="0030"/>
  <outline>
    <contour>
      <point x="67" y="790" type="line"/>
      <point x="30" y="15" type="line"/>
      <point x="-101" y="159" type="line"/>
      <point x="441" y="-50" type="line"/>
      <point x="275" y="-59" type="line"/>
      <point x="733" y="160" type="line"/>
      <point x="554" y="0" type="line"/>
      <point x="641" y="774" type="line"/>
      <point x="732" y="636" type="line"/>
      <point x="197" y="848" type="line"/>
      <point x="399" y="860" type="line"/>
      <point x="-87" y="610" type="line"/>
    </contour>
    <contour>
      <point x="201" y="629" type="line"/>
      <point x="526" y="548" type="line"/>
      <point x="414" y="626" type="line"/>
      <point x="399" y="117" type="line"/>
      <point x="473" y="245" type="line"/>
      <point x="314" y="155" type="line"/>
      <point x="433" y="176" type="line"/>
      <point x="149" y="238" type="line"/>
      <point x="247" y="128" type="line"/>
      <point x="232" y="675" type="line"/>
      <point x="161" y="557" type="line"/>
      <point x="320" y="646" type="line"/>
    </contour>
  </outline>
</glyph>
<glyph name="two" format="2">
  <advance width="580"/>
  <unicode hex="0032"/>
  <outline>
    <contour>
      <point x="-147" y="88" type="line"/>
      <point x="52" y="382" type="line"/>
      <point x="20" y="-70" type="line"/>
      <point x="-11" y="0" type="line"/>
      <point x="613" y="-4" type="line"/>
      <point x="515" y="-69" type="line"/>
      <point x="540" y="319" type="line"/>
      <point x="650" y="200" type="line"/>
      <point x="150" y="159" type="line"/>
      <point x="218" y="116" type="line"/>
      <point x="218" y="295" type="line"/>
      <point x="192" y="167" type="line"/>
      <point x="571" y="452" type="line"/>
      <point x="506" y="348" type="line"/>
      <point x="557" y="798" type="line"/>
      <point x="662" y="635" type="line"/>
      <point x="301" y="821" type="line"/>
      <point x="402" y="825" type="line"/>
      <point x="9" y="753" type="line"/>
      <point x="28" y="831" type="line"/>
      <point x="134" y="463" type="line"/>
      <point x="76" y="564" type="line"/>
      <point x="319" y="637" type="line"/>
      <point x="248" y="645" type="line"/>
      <point x="361" y="576" type="line"/>
      <point x="338" y="628" type="line"/>
      <point x="331" y="392" type="line"/>
      <point x="389" y="536" type="line"/>
    </contour>
  </outline>
</glyph>
<glyph name="four" format="2">
  <advance width="564"/>
  <unicode hex="0034"/>
  <outline>
    <contour>
      <point x="116" y="237" type="line"/>
      <point x="304" y="550" type="line"/>
      <point x="361" y="658" type="line"/>
      <point x="279" y="623" type="line"/>
      <point x="390" y="593" type="line"/>
      <point x="342" y="559" type="line"/>
      <point x="410" y="726" type="line"/>
      <point x="357" y="730" type="line"/>
      <point x="333" y="548" type="line"/>
      <point x="314" y="332" type="line"/>
      <point x="305" y="248" type="line"/>
      <point x="250" y="-83" type="line"/>
      <point x="219" y="0" type="line"/>
      <point x="499" y="0" type="line"/>
      <point x="464" y="-83" type="line"/>
      <point x="484" y="292" type="line"/>
      <point x="494" y="343" type="line"/>
      <point x="544" y="844" type="line"/>
      <point x="577" y="790" type="line"/>
      <point x="284" y="793" type="line"/>
      <point x="343" y="846" type="line"/>
      <point x="-38" y="312" type="line"/>
      <point x="-39" y="397" type="line"/>
      <point x="69" y="156" type="line"/>
      <point x="-17" y="216" type="line"/>
      <point x="339" y="218" type="line"/>
      <point x="578" y="211" type="line"/>
      <point x="556" y="126" type="line"/>
      <point x="575" y="482" type="line"/>
      <point x="586" y="374" type="line"/>
      <point x="344" y="365" type="line"/>
      <point x="108" y="366" type="line"/>
    </contour>
  </outline>
</glyph>
<glyph name="six" format="2">
  <advance width="610"/>
  <unicode hex="0036"/>
  <outline>
    <contour>
      <point x="315" y="554" type="line"/>
      <point x="371" y="591" type="line"/>
      <point x="189" y="383" type="line"/>
      <point x="182" y="407" type="line"/>
      <point x="461" y="321" type="line"/>
      <point x="373" y="370" type="line"/>
      <point x="366" y="82" type="line"/>
      <point x="397" y="210" type="line"/>
      <point x="312" y="147" type="line"/>
      <point x="386" y="160" type="line"/>
      <point x="148" y="222" type="line"/>
      <point x="234" y="128" type="line"/>
      <point x="244" y="403" type="line"/>
      <point x="318" y="466" type="line"/>
      <point x="320" y="444" type="line"/>
      <point x="223" y="474" type="line"/>
      <point x="250" y="419" type="line"/>
      <point x="270" y="675" type="line"/>
      <point x="193" y="597" type="line"/>
      <point x="352" y="686" type="line"/>
      <point x="275" y="662" type="line"/>
      <point x="571" y="573" type="line"/>
      <point x="506" y="513" type="line"/>
      <point x="596" y="884" type="line"/>
      <point x="599" y="770" type="line"/>
      <point x="258" y="816" type="line"/>
      <point x="401" y="859" type="line"/>
      <point x="-85" y="610" type="line"/>
      <point x="81" y="790" type="line"/>
      <point x="28" y="15" type="line"/>
      <point x="-102" y="159" type="line"/>
      <point x="394" y="-50" type="line"/>
      <point x="261" y="-58" type="line"/>
      <point x="681" y="178" type="line"/>
      <point x="523" y="-49" type="line"/>
      <point x="585" y="466" type="line"/>
      <point x="677" y="396" type="line"/>
    </contour>
  </outline>
</glyph>
<glyph name="question" format="2">
  <advance width="452"/>
  <unicode hex="003F"/>
  <outline>
    <contour>
      <point x="43" y="209" type="line"/>
      <point x="25" y="-39" type="line"/>
      <point x="-13" y="-6" type="line"/>
      <point x="258" y="0" type="line"/>
      <point x="206" y="-33" type="line"/>
      <point x="216" y="205" type="line"/>
      <point x="256" y="157" type="line"/>
      <point x="20" y="161" type="line"/>
    </contour>
    <contour>
      <point x="290" y="706" type="line"/>
      <point x="262" y="431" type="line"/>
      <point x="323" y="537" type="line"/>
      <point x="204" y="465" type="line"/>
      <point x="335" y="493" type="line"/>
      <point x="51" y="517" type="line"/>
      <point x="202" y="546" type="line"/>
      <point x="1" y="423" type="line"/>
      <point x="58" y="515" type="line"/>
      <point x="48" y="214" type="line"/>
      <point x="5" y="240" type="line"/>
      <point x="251" y="236" type="line"/>
      <point x="207" y="208" type="line"/>
      <point x="227" y="418" type="line"/>
      <point x="192" y="337" type="line"/>
      <point x="263" y="386" type="line"/>
      <point x="173" y="374" type="line"/>
      <point x="416" y="336" type="line"/>
      <point x="221" y="308" type="line"/>
      <point x="521" y="504" type="line"/>
      <point x="425" y="318" type="line"/>
      <point x="477" y="804" type="line"/>
      <point x="513" y="674" type="line"/>
      <point x="204" y="855" type="line"/>
      <point x="320" y="842" type="line"/>
      <point x="-44" y="824" type="line"/>
      <point x="-1" y="866" type="line"/>
      <point x="28" y="575" type="line"/>
      <point x="-3" y="629" type="line"/>
      <point x="329" y="667" type="line"/>
      <point x="196" y="674" type="line"/>
      <point x="308" y="583" type="line"/>
    </contour>
  </outline>
</glyph>
<glyph name="C" format="2">
  <advance width="539"/>
  <unicode hex="0043"/>
  <anchor x="270" y="0" name="bottom"/>
  <anchor x="334" y="790" name="top"/>
  <outline>
    <contour>
      <point x="559" y="583" type="line"/>
      <point x="512" y="548" type="line"/>
      <point x="571" y="837" type="line"/>
      <point x="643" y="777" type="line"/>
      <point x="225" y="816" type="line"/>
      <point x="414" y="856" type="line"/>
      <point x="-62" y="626" type="line"/>
      <point x="94" y="795" type="line"/>
      <point x="26" y="15" type="line"/>
      <point x="-25" y="134" type="line"/>
      <point x="374" y="-49" type="line"/>
      <point x="160" y="-13" type="line"/>
      <point x="581" y="-1" type="line"/>
      <point x="517" y="-38" type="line"/>
      <point x="508" y="255" type="line"/>
      <point x="550" y="195" type="line"/>
      <point x="295" y="165" type="line"/>
      <point x="438" y="156" type="line"/>
      <point x="213" y="212" type="line"/>
      <point x="242" y="141" type="line"/>
      <point x="268" y="637" type="line"/>
      <point x="217" y="586" type="line"/>
      <point x="340" y="655" type="line"/>
      <point x="248" y="635" type="line"/>
    </contour>
  </outline>
</glyph>
<glyph name="K" format="2">
  <advance width="699"/>
  <unicode hex="004B"/>
  <anchor x="325" y="0" name="bottom"/>
  <anchor x="353" y="790" name="top"/>
  <outline>
    <contour>
      <point x="247" y="-83" type="line"/>
      <point x="301" y="844" type="line"/>
      <point x="344" y="705" type="line"/>
      <point x="230" y="845" type="line"/>
      <point x="329" y="790" type="line"/>
      <point x="-36" y="793" type="line"/>
      <point x="38" y="842" type="line"/>
      <point x="19" y="548" type="line"/>
      <point x="-64" y="593" type="line"/>
      <point x="158" y="613" type="line"/>
      <point x="107" y="696" type="line"/>
      <point x="37" y="-83" type="line"/>
      <point x="16" y="0" type="line"/>
      <point x="296" y="0" type="line"/>
    </contour>
    <contour>
      <point x="700" y="604" type="line"/>
      <point x="647" y="862" type="line"/>
      <point x="700" y="790" type="line"/>
      <point x="260" y="794" type="line"/>
      <point x="364" y="857" type="line"/>
      <point x="339" y="478" type="line"/>
      <point x="222" y="590" type="line"/>
      <point x="512" y="615" type="line"/>
      <point x="513" y="666" type="line"/>
      <point x="148" y="285" type="line"/>
      <point x="161" y="369" type="line"/>
      <point x="287" y="210" type="line"/>
      <point x="203" y="219" type="line"/>
      <point x="708" y="709" type="line"/>
    </contour>
    <contour>
      <point x="372" y="0" type="line"/>
      <point x="738" y="-3" type="line"/>
      <point x="664" y="-52" type="line"/>
      <point x="683" y="242" type="line"/>
      <point x="766" y="197" type="line"/>
      <point x="503" y="177" type="line"/>
      <point x="617" y="142" type="line"/>
      <point x="438" y="500" type="line"/>
      <point x="489" y="498" type="line"/>
      <point x="254" y="364" type="line"/>
      <point x="285" y="405" type="line"/>
      <point x="454" y="-53" type="line"/>
    </contour>
  </outline>
</glyph>
<glyph name="O" format="2">
  <advance width="699"/>
  <unicode hex="004F"/>
  <anchor x="356" y="790" name="top"/>
  <outline>
    <contour>
      <point x="63" y="794" type="line"/>
      <point x="30" y="11" type="line"/>
      <point x="-99" y="154" type="line"/>
      <point x="483" y="-55" type="line"/>
      <point x="317" y="-64" type="line"/>
      <point x="775" y="155" type="line"/>
      <point x="602" y="-4" type="line"/>
      <point x="685" y="778" type="line"/>
      <point x="774" y="641" type="line"/>
      <point x="199" y="853" type="line"/>
      <point x="401" y="865" type="line"/>
      <point x="-85" y="615" type="line"/>
    </contour>
    <contour>
      <point x="203" y="631" type="line"/>
      <point x="568" y="546" type="line"/>
      <point x="456" y="630" type="line"/>
      <point x="441" y="113" type="line"/>
      <point x="517" y="243" type="line"/>
      <point x="358" y="153" type="line"/>
      <point x="475" y="174" type="line"/>
      <point x="151" y="240" type="line"/>
      <point x="249" y="124" type="line"/>
      <point x="234" y="679" type="line"/>
      <point x="161" y="559" type="line"/>
      <point x="320" y="648" type="line"/>
    </contour>
  </outline>
</glyph>
<glyph name="S" format="2">
  <advance width="655"/>
  <unicode hex="0053"/>
  <anchor x="318" y="0" name="bottom"/>
  <anchor x="354" y="790" name="top"/>
  <outline>
    <contour>
      <point x="638" y="881" type="line"/>
      <point x="641" y="767" type="line"/>
      <point x="251" y="817" type="line"/>
      <point x="443" y="881" type="line"/>
      <point x="-30" y="621" type="line"/>
      <point x="98" y="821" type="line"/>
      <point x="65" y="300" type="line"/>
      <point x="7" y="386" type="line"/>
      <point x="290" y="273" type="line"/>
      <point x="92" y="292" type="line"/>
      <point x="460" y="323" type="line"/>
      <point x="325" y="378" type="line"/>
      <point x="462" y="259" type="line"/>
      <point x="417" y="396" type="line"/>
      <point x="399" y="115" type="line"/>
      <point x="451" y="192" type="line"/>
      <point x="333" y="131" type="line"/>
      <point x="433" y="144" type="line"/>
      <point x="17" y="229" type="line"/>
      <point x="75" y="327" type="line"/>
      <point x="-31" y="-41" type="line"/>
      <point x="-50" y="37" type="line"/>
      <point x="433" y="-27" type="line"/>
      <point x="346" y="-37" type="line"/>
      <point x="659" y="127" type="line"/>
      <point x="574" y="-24" type="line"/>
      <point x="638" y="501" type="line"/>
      <point x="742" y="353" type="line"/>
      <point x="396" y="517" type="line"/>
      <point x="568" y="494" type="line"/>
      <point x="237" y="452" type="line"/>
      <point x="327" y="421" type="line"/>
      <point x="240" y="489" type="line"/>
      <point x="267" y="425" type="line"/>
      <point x="292" y="680" type="line"/>
      <point x="246" y="613" type="line"/>
      <point x="377" y="687" type="line"/>
      <point x="268" y="649" type="line"/>
      <point x="613" y="565" type="line"/>
      <point x="548" y="510" type="line"/>
    </contour>
  </outline>
</glyph>
<glyph name="T" format="2">
  <advance width="532"/>
  <unicode hex="0054"/>
  <anchor x="208" y="0" name="bottom"/>
  <anchor x="261" y="790" name="top"/>
  <outline>
    <contour>
      <point x="80" y="518" type="line"/>
      <point x="160" y="633" type="line"/>
      <point x="96" y="-83" type="line"/>
      <point x="75" y="0" type="line"/>
      <point x="355" y="0" type="line"/>
      <point x="306" y="-83" type="line"/>
      <point x="354" y="749" type="line"/>
      <point x="359" y="691" type="line"/>
      <point x="174" y="590" type="line"/>
      <point x="192" y="650" type="line"/>
      <point x="222" y="551" type="line"/>
      <point x="251" y="615" type="line"/>
      <point x="179" y="579" type="line"/>
    </contour>
    <contour>
      <point x="623" y="795" type="line"/>
      <point x="173" y="787" type="line"/>
      <point x="392" y="788" type="line"/>
      <point x="-57" y="789" type="line"/>
      <point x="17" y="831" type="line"/>
      <point x="-2" y="537" type="line"/>
      <point x="-85" y="590" type="line"/>
      <point x="464" y="606" type="line"/>
      <point x="72" y="601" type="line"/>
      <point x="601" y="596" type="line"/>
      <point x="518" y="551" type="line"/>
      <point x="537" y="845" type="line"/>
    </contour>
  </outline>
</glyph>
<glyph name="W" format="2">
  <advance width="1066"/>
  <unicode hex="0057"/>
  <anchor x="580" y="790" name="top"/>
  <outline>
    <contour>
      <point x="601" y="127" type="line"/>
      <point x="473" y="127" type="line"/>
      <point x="823" y="-66" type="line"/>
      <point x="615" y="-137" type="line"/>
      <point x="1067" y="199" type="line"/>
      <point x="975" y="37" type="line"/>
      <point x="1061" y="853" type="line"/>
      <point x="1069" y="790" type="line"/>
      <point x="783" y="790" type="line"/>
      <point x="848" y="853" type="line"/>
      <point x="798" y="93" type="line"/>
      <point x="848" y="159" type="line"/>
      <point x="584" y="276" type="line"/>
      <point x="626" y="224" type="line"/>
      <point x="692" y="853" type="line"/>
      <point x="700" y="790" type="line"/>
      <point x="414" y="790" type="line"/>
      <point x="479" y="853" type="line"/>
      <point x="429" y="93" type="line"/>
      <point x="479" y="159" type="line"/>
      <point x="156" y="302" type="line"/>
      <point x="233" y="123" type="line"/>
      <point x="329" y="826" type="line"/>
      <point x="372" y="705" type="line"/>
      <point x="258" y="845" type="line"/>
      <point x="324" y="790" type="line"/>
      <point x="-15" y="793" type="line"/>
      <point x="59" y="842" type="line"/>
      <point x="40" y="548" type="line"/>
      <point x="-43" y="590" type="line"/>
      <point x="223" y="623" type="line"/>
      <point x="142" y="681" type="line"/>
      <point x="-7" y="18" type="line"/>
      <point x="-71" y="224" type="line"/>
      <point x="454" y="-66" type="line"/>
      <point x="246" y="-137" type="line"/>
    </contour>
  </outline>
</glyph>
<glyph name="a" format="2">
  <advance width="594"/>
  <unicode hex="0061"/>
  <anchor x="476" y="0" name="ogonek"/>
  <anchor x="310" y="600" name="top"/>
  <outline>
    <contour>
      <point x="-21" y="411" type="line"/>
      <point x="377" y="467" type="line"/>
      <point x="309" y="493" type="line"/>
      <point x="362" y="430" type="line"/>
      <point x="344" y="500" type="line"/>
      <point x="344" y="441" type="line"/>
      <point x="335" y="431" type="line"/>
      <point x="313" y="-5" type="line"/>
      <point x="278" y="92" type="line"/>
      <point x="542" y="-40" type="line"/>
      <point x="477" y="-64" type="line"/>
      <point x="605" y="168" type="line"/>
      <point x="638" y="129" type="line"/>
      <point x="452" y="180" type="line"/>
      <point x="489" y="129" type="line"/>
      <point x="540" y="663" type="line"/>
      <point x="570" y="501" type="line"/>
      <point x="367" y="649" type="line"/>
      <point x="506" y="600" type="line"/>
      <point x="7" y="603" type="line"/>
      <point x="81" y="652" type="line"/>
      <point x="62" y="358" type="line"/>
    </contour>
    <contour>
      <point x="85" y="211" type="line"/>
      <point x="374" y="398" type="line"/>
      <point x="356" y="460" type="line"/>
      <point x="-35" y="231" type="line"/>
      <point x="73" y="319" type="line"/>
      <point x="9" y="48" type="line"/>
      <point x="-98" y="138" type="line"/>
      <point x="314" y="-41" type="line"/>
      <point x="242" y="-40" type="line"/>
      <point x="422" y="177" type="line"/>
      <point x="437" y="125" type="line"/>
      <point x="126" y="194" type="line"/>
      <point x="212" y="155" type="line"/>
      <point x="222" y="352" type="line"/>
    </contour>
  </outline>
</glyph>
<glyph name="b" format="2">
  <advance width="597"/>
  <unicode hex="0062"/>
  <outline>
    <contour>
      <point x="433" y="442" type="line"/>
      <point x="369" y="488" type="line"/>
      <point x="378" y="82" type="line"/>
      <point x="424" y="173" type="line"/>
      <point x="323" y="116" type="line"/>
      <point x="433" y="136" type="line"/>
      <point x="194" y="152" type="line"/>
      <point x="239" y="76" type="line"/>
      <point x="252" y="516" type="line"/>
      <point x="256" y="535" type="line"/>
      <point x="247" y="539" type="line"/>
      <point x="272" y="848" type="line"/>
      <point x="321" y="730" type="line"/>
      <point x="207" y="870" type="line"/>
      <point x="284" y="820" type="line"/>
      <point x="-50" y="823" type="line"/>
      <point x="25" y="872" type="line"/>
      <point x="6" y="578" type="line"/>
      <point x="-78" y="627" type="line"/>
      <point x="168" y="675" type="line"/>
      <point x="97" y="719" type="line"/>
      <point x="37" y="-63" type="line"/>
      <point x="6" y="67" type="line"/>
      <point x="452" y="-46" type="line"/>
      <point x="251" y="-66" type="line"/>
      <point x="665" y="125" type="line"/>
      <point x="523" y="-49" type="line"/>
      <point x="561" y="584" type="line"/>
      <point x="657" y="522" type="line"/>
      <point x="269" y="638" type="line"/>
      <point x="344" y="637" type="line"/>
      <point x="162" y="433" type="line"/>
      <point x="146" y="472" type="line"/>
    </contour>
  </outline>
</glyph>
<glyph name="c" format="2">
  <advance width="497"/>
  <unicode hex="0063"/>
  <anchor x="233" y="0" name="bottom"/>
  <anchor x="283" y="600" name="top"/>
  <outline>
    <contour>
      <point x="493" y="411" type="line"/>
      <point x="427" y="386" type="line"/>
      <point x="496" y="672" type="line"/>
      <point x="535" y="589" type="line"/>
      <point x="192" y="622" type="line"/>
      <point x="358" y="658" type="line"/>
      <point x="-35" y="468" type="line"/>
      <point x="84" y="608" type="line"/>
      <point x="33" y="5" type="line"/>
      <point x="-8" y="104" type="line"/>
      <point x="322" y="-40" type="line"/>
      <point x="145" y="-10" type="line"/>
      <point x="489" y="0" type="line"/>
      <point x="436" y="-32" type="line"/>
      <point x="429" y="210" type="line"/>
      <point x="463" y="183" type="line"/>
      <point x="257" y="158" type="line"/>
      <point x="375" y="148" type="line"/>
      <point x="189" y="182" type="line"/>
      <point x="220" y="109" type="line"/>
      <point x="230" y="477" type="line"/>
      <point x="186" y="414" type="line"/>
      <point x="287" y="471" type="line"/>
      <point x="206" y="458" type="line"/>
    </contour>
  </outline>
</glyph>
<glyph name="d" format="2">
  <advance width="615"/>
  <unicode hex="0064"/>
  <anchor x="470" y="800" name="top"/>
  <outline>
    <contour>
      <point x="472" y="180" type="line"/>
      <point x="509" y="102" type="line"/>
      <point x="574" y="923" type="line"/>
      <point x="615" y="820" type="line"/>
      <point x="329" y="820" type="line"/>
      <point x="374" y="923" type="line"/>
      <point x="375" y="531" type="line"/>
      <point x="412" y="596" type="line"/>
      <point x="327" y="548" type="line"/>
      <point x="364" y="500" type="line"/>
      <point x="352" y="25" type="line"/>
      <point x="298" y="92" type="line"/>
      <point x="562" y="-40" type="line"/>
      <point x="497" y="-64" type="line"/>
      <point x="625" y="168" type="line"/>
      <point x="658" y="129" type="line"/>
    </contour>
    <contour>
      <point x="417" y="438" type="line"/>
      <point x="465" y="536" type="line"/>
      <point x="146" y="655" type="line"/>
      <point x="394" y="685" type="line"/>
      <point x="-58" y="485" type="line"/>
      <point x="65" y="649" type="line"/>
      <point x="36" y="16" type="line"/>
      <point x="-59" y="78" type="line"/>
      <point x="342" y="-37" type="line"/>
      <point x="267" y="-36" type="line"/>
      <point x="449" y="167" type="line"/>
      <point x="465" y="128" type="line"/>
      <point x="165" y="158" type="line"/>
      <point x="226" y="112" type="line"/>
      <point x="217" y="518" type="line"/>
      <point x="181" y="426" type="line"/>
      <point x="264" y="491" type="line"/>
      <point x="165" y="471" type="line"/>
    </contour>
  </outline>
</glyph>
<glyph name="e" format="2">
  <advance width="536"/>
  <unicode hex="0065"/>
  <anchor x="233" y="0" name="bottom"/>
  <anchor x="414" y="0" name="ogonek"/>
  <anchor x="283" y="600" name="top"/>
  <outline>
    <contour>
      <point x="206" y="455" type="line"/>
      <point x="407" y="412" type="line"/>
      <point x="325" y="454" type="line"/>
      <point x="315" y="257" type="line"/>
      <point x="448" y="390" type="line"/>
      <point x="147" y="223" type="line"/>
      <point x="161" y="160" type="line"/>
      <point x="567" y="362" type="line"/>
      <point x="465" y="291" type="line"/>
      <point x="539" y="560" type="line"/>
      <point x="631" y="468" type="line"/>
      <point x="219" y="647" type="line"/>
      <point x="356" y="656" type="line"/>
      <point x="-37" y="468" type="line"/>
      <point x="82" y="608" type="line"/>
      <point x="34" y="5" type="line"/>
      <point x="-9" y="104" type="line"/>
      <point x="321" y="-40" type="line"/>
      <point x="145" y="-10" type="line"/>
      <point x="529" y="0" type="line"/>
      <point x="476" y="-32" type="line"/>
      <point x="469" y="210" type="line"/>
      <point x="503" y="183" type="line"/>
      <point x="284" y="157" type="line"/>
      <point x="376" y="148" type="line"/>
      <point x="190" y="182" type="line"/>
      <point x="221" y="109" type="line"/>
      <point x="231" y="477" type="line"/>
      <point x="187" y="415" type="line"/>
      <point x="288" y="472" type="line"/>
    </contour>
  </outline>
</glyph>
<glyph name="m" format="2">
  <advance width="961"/>
  <unicode hex="006D"/>
  <anchor x="498" y="600" name="top"/>
  <outline>
    <contour>
      <point x="635" y="0" type="line"/>
      <point x="981" y="-3" type="line"/>
      <point x="907" y="-52" type="line"/>
      <point x="926" y="242" type="line"/>
      <point x="1009" y="189" type="line"/>
      <point x="743" y="151" type="line"/>
      <point x="814" y="109" type="line"/>
      <point x="944" y="571" type="line"/>
      <point x="995" y="482" type="line"/>
      <point x="583" y="641" type="line"/>
      <point x="655" y="640" type="line"/>
      <point x="475" y="423" type="line"/>
      <point x="460" y="471" type="line"/>
      <point x="771" y="412" type="line"/>
      <point x="714" y="466" type="line"/>
      <point x="650" y="-16" type="line"/>
      <point x="622" y="59" type="line"/>
      <point x="704" y="-40" type="line"/>
    </contour>
    <contour>
      <point x="251" y="-63" type="line"/>
      <point x="281" y="605" type="line"/>
      <point x="316" y="508" type="line"/>
      <point x="52" y="640" type="line"/>
      <point x="117" y="664" type="line"/>
      <point x="-11" y="432" type="line"/>
      <point x="-44" y="471" type="line"/>
      <point x="142" y="420" type="line"/>
      <point x="105" y="471" type="line"/>
      <point x="54" y="-63" type="line"/>
      <point x="12" y="0" type="line"/>
      <point x="298" y="0" type="line"/>
    </contour>
    <contour>
      <point x="446" y="416" type="line"/>
      <point x="410" y="471" type="line"/>
      <point x="356" y="-63" type="line"/>
      <point x="315" y="0" type="line"/>
      <point x="601" y="0" type="line"/>
      <point x="554" y="-63" type="line"/>
      <point x="584" y="605" type="line"/>
      <point x="633" y="506" type="line"/>
      <point x="283" y="641" type="line"/>
      <point x="355" y="634" type="line"/>
      <point x="175" y="417" type="line"/>
      <point x="160" y="471" type="line"/>
    </contour>
  </outline>
</glyph>
<glyph name="n" format="2">
  <advance width="661"/>
  <unicode hex="006E"/>
  <anchor x="303" y="0" name="bottom"/>
  <anchor x="351" y="600" name="top"/>
  <outline>
    <contour>
      <point x="412" y="-55" type="line"/>
      <point x="349" y="0" type="line"/>
      <point x="678" y="-3" type="line"/>
      <point x="604" y="-52" type="line"/>
      <point x="623" y="242" type="line"/>
      <point x="706" y="189" type="line"/>
      <point x="440" y="151" type="line"/>
      <point x="511" y="109" type="line"/>
      <point x="641" y="571" type="line"/>
      <point x="692" y="482" type="line"/>
      <point x="280" y="641" type="line"/>
      <point x="352" y="640" type="line"/>
      <point x="172" y="423" type="line"/>
      <point x="157" y="471" type="line"/>
      <point x="468" y="412" type="line"/>
      <point x="411" y="466" type="line"/>
      <point x="344" y="-36" type="line"/>
      <point x="298" y="85" type="line"/>
    </contour>
    <contour>
      <point x="251" y="-63" type="line"/>
      <point x="281" y="605" type="line"/>
      <point x="316" y="508" type="line"/>
      <point x="52" y="640" type="line"/>
      <point x="117" y="664" type="line"/>
      <point x="-11" y="432" type="line"/>
      <point x="-44" y="471" type="line"/>
      <point x="142" y="420" type="line"/>
      <point x="105" y="471" type="line"/>
      <point x="54" y="-63" type="line"/>
      <point x="12" y="0" type="line"/>
      <point x="298" y="0" type="line"/>
    </contour>
  </outline>
</glyph>
<glyph name="o" format="2">
  <advance width="591"/>
  <unicode hex="006F"/>
  <anchor x="303" y="600" name="top"/>
  <outline>
    <contour>
      <point x="64" y="608" type="line"/>
      <point x="36" y="5" type="line"/>
      <point x="-66" y="133" type="line"/>
      <point x="393" y="-46" type="line"/>
      <point x="262" y="-53" type="line"/>
      <point x="633" y="118" type="line"/>
      <point x="506" y="-7" type="line"/>
      <point x="573" y="596" type="line"/>
      <point x="644" y="472" type="line"/>
      <point x="175" y="653" type="line"/>
      <point x="338" y="662" type="line"/>
      <point x="-55" y="468" type="line"/>
    </contour>
    <contour>
      <point x="189" y="455" type="line"/>
      <point x="452" y="383" type="line"/>
      <point x="373" y="446" type="line"/>
      <point x="363" y="123" type="line"/>
      <point x="413" y="183" type="line"/>
      <point x="312" y="126" type="line"/>
      <point x="394" y="144" type="line"/>
      <point x="156" y="204" type="line"/>
      <point x="225" y="130" type="line"/>
      <point x="215" y="477" type="line"/>
      <point x="169" y="414" type="line"/>
      <point x="270" y="471" type="line"/>
    </contour>
  </outline>
</glyph>
<glyph name="p" format="2">
  <advance width="611"/>
  <unicode hex="0070"/>
  <outline>
    <contour>
      <point x="142" y="420" type="line"/>
      <point x="105" y="498" type="line"/>
      <point x="39" y="-323" type="line"/>
      <point x="-1" y="-220" type="line"/>
      <point x="285" y="-220" type="line"/>
      <point x="240" y="-323" type="line"/>
      <point x="239" y="69" type="line"/>
      <point x="202" y="5" type="line"/>
      <point x="287" y="53" type="line"/>
      <point x="250" y="100" type="line"/>
      <point x="262" y="575" type="line"/>
      <point x="316" y="508" type="line"/>
      <point x="52" y="640" type="line"/>
      <point x="117" y="664" type="line"/>
      <point x="-11" y="432" type="line"/>
      <point x="-44" y="471" type="line"/>
    </contour>
    <contour>
      <point x="197" y="162" type="line"/>
      <point x="149" y="64" type="line"/>
      <point x="467" y="-55" type="line"/>
      <point x="238" y="-81" type="line"/>
      <point x="672" y="119" type="line"/>
      <point x="539" y="-49" type="line"/>
      <point x="577" y="584" type="line"/>
      <point x="673" y="522" type="line"/>
      <point x="272" y="637" type="line"/>
      <point x="347" y="636" type="line"/>
      <point x="165" y="433" type="line"/>
      <point x="149" y="472" type="line"/>
      <point x="449" y="442" type="line"/>
      <point x="385" y="488" type="line"/>
      <point x="394" y="82" type="line"/>
      <point x="433" y="174" type="line"/>
      <point x="350" y="109" type="line"/>
      <point x="449" y="129" type="line"/>
    </contour>
  </outline>
</glyph>
<glyph name="t" format="2">
  <advance width="384"/>
  <unicode hex="0074"/>
  <anchor x="178" y="0" name="bottom"/>
  <anchor x="205" y="800" name="top"/>
  <outline>
    <contour>
      <point x="-55" y="603" type="line"/>
      <point x="22" y="652" type="line"/>
      <point x="3" y="358" type="line"/>
      <point x="-83" y="442" type="line"/>
      <point x="159" y="438" type="line"/>
      <point x="97" y="491" type="line"/>
      <point x="55" y="-5" type="line"/>
      <point x="31" y="79" type="line"/>
      <point x="298" y="-39" type="line"/>
      <point x="234" y="-63" type="line"/>
      <point x="362" y="169" type="line"/>
      <point x="387" y="132" type="line"/>
      <point x="201" y="163" type="line"/>
      <point x="255" y="129" type="line"/>
      <point x="268" y="493" type="line"/>
      <point x="228" y="435" type="line"/>
      <point x="394" y="427" type="line"/>
      <point x="367" y="402" type="line"/>
      <point x="383" y="652" type="line"/>
      <point x="408" y="600" type="line"/>
      <point x="238" y="600" type="line"/>
      <point x="259" y="530" type="line"/>
      <point x="295" y="820" type="line"/>
      <point x="326" y="787" type="line"/>
      <point x="55" y="771" type="line"/>
      <point x="105" y="814" type="line"/>
      <point x="99" y="560" type="line"/>
      <point x="140" y="600" type="line"/>
    </contour>
  </outline>
</glyph>
<glyph name="v" format="2">
  <advance width="620"/>
  <unicode hex="0076"/>
  <outline>
    <contour>
      <point x="603" y="168" type="line"/>
      <point x="545" y="82" type="line"/>
      <point x="600" y="663" type="line"/>
      <point x="642" y="600" type="line"/>
      <point x="356" y="600" type="line"/>
      <point x="403" y="663" type="line"/>
      <point x="378" y="116" type="line"/>
      <point x="445" y="128" type="line"/>
      <point x="236" y="218" type="line"/>
      <point x="258" y="124" type="line"/>
      <point x="310" y="636" type="line"/>
      <point x="356" y="515" type="line"/>
      <point x="242" y="655" type="line"/>
      <point x="305" y="600" type="line"/>
      <point x="-24" y="603" type="line"/>
      <point x="50" y="652" type="line"/>
      <point x="31" y="358" type="line"/>
      <point x="-52" y="411" type="line"/>
      <point x="214" y="449" type="line"/>
      <point x="143" y="491" type="line"/>
      <point x="33" y="19" type="line"/>
      <point x="12" y="148" type="line"/>
      <point x="404" y="-57" type="line"/>
      <point x="282" y="-56" type="line"/>
    </contour>
  </outline>
</glyph>
<glyph name="w" format="2">
  <advance width="905"/>
  <unicode hex="0077"/>
  <anchor x="500" y="600" name="top"/>
  <outline>
    <contour>
      <point x="603" y="168" type="line"/>
      <point x="545" y="82" type="line"/>
      <point x="600" y="663" type="line"/>
      <point x="642" y="600" type="line"/>
      <point x="356" y="600" type="line"/>
      <point x="403" y="663" type="line"/>
      <point x="378" y="116" type="line"/>
      <point x="445" y="128" type="line"/>
      <point x="236" y="218" type="line"/>
      <point x="258" y="124" type="line"/>
      <point x="310" y="636" type="line"/>
      <point x="356" y="515" type="line"/>
      <point x="242" y="655" type="line"/>
      <point x="305" y="600" type="line"/>
      <point x="-24" y="603" type="line"/>
      <point x="50" y="652" type="line"/>
      <point x="31" y="358" type="line"/>
      <point x="-52" y="411" type="line"/>
      <point x="214" y="449" type="line"/>
      <point x="143" y="491" type="line"/>
      <point x="33" y="19" type="line"/>
      <point x="12" y="148" type="line"/>
      <point x="404" y="-57" type="line"/>
      <point x="282" y="-56" type="line"/>
    </contour>
    <contour>
      <point x="533" y="229" type="line"/>
      <point x="354" y="70" type="line"/>
      <point x="338" y="105" type="line"/>
      <point x="689" y="-57" type="line"/>
      <point x="567" y="-56" type="line"/>
      <point x="888" y="168" type="line"/>
      <point x="830" y="82" type="line"/>
      <point x="885" y="663" type="line"/>
      <point x="937" y="600" type="line"/>
      <point x="651" y="600" type="line"/>
      <point x="688" y="663" type="line"/>
      <point x="663" y="116" type="line"/>
      <point x="730" y="128" type="line"/>
      <point x="470" y="220" type="line"/>
    </contour>
  </outline>
</glyph>
<glyph name="x" format="2">
  <advance width="612"/>
  <unicode hex="0078"/>
  <outline>
    <contour>
      <point x="174" y="440" type="line"/>
      <point x="128" y="473" type="line"/>
      <point x="218" y="264" type="line"/>
      <point x="164" y="283" type="line"/>
      <point x="304" y="283" type="line"/>
      <point x="235" y="318" type="line"/>
      <point x="368" y="-25" type="line"/>
      <point x="339" y="0" type="line"/>
      <point x="657" y="-3" type="line"/>
      <point x="576" y="-52" type="line"/>
      <point x="595" y="242" type="line"/>
      <point x="686" y="183" type="line"/>
      <point x="445" y="159" type="line"/>
      <point x="489" y="127" type="line"/>
      <point x="391" y="352" type="line"/>
      <point x="446" y="339" type="line"/>
      <point x="306" y="339" type="line"/>
      <point x="375" y="297" type="line"/>
      <point x="249" y="625" type="line"/>
      <point x="280" y="600" type="line"/>
      <point x="-29" y="603" type="line"/>
      <point x="52" y="652" type="line"/>
      <point x="33" y="358" type="line"/>
      <point x="-58" y="416" type="line"/>
    </contour>
    <contour>
      <point x="612" y="456" type="line"/>
      <point x="571" y="656" type="line"/>
      <point x="612" y="600" type="line"/>
      <point x="281" y="603" type="line"/>
      <point x="362" y="652" type="line"/>
      <point x="343" y="358" type="line"/>
      <point x="252" y="426" type="line"/>
      <point x="466" y="447" type="line"/>
      <point x="471" y="488" type="line"/>
      <point x="296" y="245" type="line"/>
      <point x="302" y="312" type="line"/>
      <point x="400" y="189" type="line"/>
      <point x="335" y="202" type="line"/>
      <point x="620" y="536" type="line"/>
    </contour>
    <contour>
      <point x="-3" y="144" type="line"/>
      <point x="38" y="-56" type="line"/>
      <point x="-3" y="0" type="line"/>
      <point x="333" y="-3" type="line"/>
      <point x="252" y="-52" type="line"/>
      <point x="271" y="242" type="line"/>
      <point x="352" y="173" type="line"/>
      <point x="118" y="152" type="line"/>
      <point x="120" y="113" type="line"/>
      <point x="305" y="365" type="line"/>
      <point x="299" y="298" type="line"/>
      <point x="201" y="421" type="line"/>
      <point x="265" y="410" type="line"/>
      <point x="-27" y="66" type="line"/>
    </contour>
  </outline>
</glyph>
<glyph name="z" format="2">
  <advance width="467"/>
  <unicode hex="007A"/>
  <anchor x="258" y="600" name="top"/>
  <outline>
    <contour>
      <point x="-55" y="-32" type="line"/>
      <point x="-80" y="116" type="line"/>
      <point x="108" y="-56" type="line"/>
      <point x="-14" y="0" type="line"/>
      <point x="502" y="-3" type="line"/>
      <point x="433" y="-52" type="line"/>
      <point x="452" y="242" type="line"/>
      <point x="533" y="189" type="line"/>
      <point x="156" y="141" type="line"/>
      <point x="284" y="108" type="line"/>
      <point x="193" y="224" type="line"/>
      <point x="208" y="89" type="line"/>
      <point x="272" y="203" type="line"/>
      <point x="495" y="628" type="line"/>
      <point x="515" y="485" type="line"/>
      <point x="347" y="655" type="line"/>
      <point x="469" y="600" type="line"/>
      <point x="-3" y="603" type="line"/>
      <point x="66" y="652" type="line"/>
      <point x="47" y="358" type="line"/>
      <point x="-34" y="412" type="line"/>
      <point x="282" y="468" type="line"/>
      <point x="212" y="501" type="line"/>
      <point x="291" y="411" type="line"/>
      <point x="280" y="509" type="line"/>
      <point x="230" y="429" type="line"/>
    </contour>
  </outline>
</glyph>
<glyph name="brokenbar" format="2">
  <advance width="240"/>
  <unicode hex="00A6"/>
  <outline>
    <contour>
      <point x="239" y="466" type="line"/>
      <point x="177" y="375" type="line"/>
      <point x="181" y="668" type="line"/>
      <point x="195" y="918" type="line"/>
      <point x="248" y="834" type="line"/>
      <point x="38" y="834" type="line"/>
      <point x="80" y="926" type="line"/>
      <point x="76" y="622" type="line"/>
      <point x="63" y="363" type="line"/>
      <point x="28" y="466" type="line"/>
    </contour>
    <contour>
      <point x="224" y="-79" type="line"/>
      <point x="162" y="-170" type="line"/>
      <point x="166" y="153" type="line"/>
      <point x="176" y="397" type="line"/>
      <point x="233" y="313" type="line"/>
      <point x="23" y="313" type="line"/>
      <point x="67" y="405" type="line"/>
      <point x="60" y="107" type="line"/>
      <point x="45" y="-182" type="line"/>
      <point x="13" y="-79" type="line"/>
    </contour>
  </outline>
</glyph>
<glyph name="copyright" format="2">
  <advance width="961"/>
  <unicode hex="00A9"/>
  <outline>
    <contour>
      <point x="894" y="790" type="line"/>
      <point x="1000" y="649" type="line"/>
      <point x="340" y="857" type="line"/>
      <point x="538" y="860" type="line"/>
      <point x="-8" y="625" type="line"/>
      <point x="124" y="785" type="line"/>
      <point x="87" y="-29" type="line"/>
      <point x="-19" y="112" type="line"/>
      <point x="641" y="-97" type="line"/>
      <point x="444" y="-104" type="line"/>
      <point x="990" y="131" type="line"/>
      <point x="857" y="-25" type="line"/>
    </contour>
    <contour>
      <point x="819" y="614" type="line"/>
      <point x="771" y="655" type="line"/>
      <point x="769" y="95" type="line"/>
      <point x="797" y="154" type="line"/>
      <point x="499" y="21" type="line"/>
      <point x="591" y="42" type="line"/>
      <point x="162" y="147" type="line"/>
      <point x="210" y="106" type="line"/>
      <point x="212" y="665" type="line"/>
      <point x="185" y="602" type="line"/>
      <point x="483" y="735" type="line"/>
      <point x="391" y="718" type="line"/>
    </contour>
    <contour>
      <point x="692" y="433" type="line"/>
      <point x="635" y="417" type="line"/>
      <point x="694" y="664" type="line"/>
      <point x="728" y="582" type="line"/>
      <point x="436" y="633" type="line"/>
      <point x="595" y="675" type="line"/>
      <point x="227" y="531" type="line"/>
      <point x="322" y="654" type="line"/>
      <point x="311" y="123" type="line"/>
      <point x="294" y="194" type="line"/>
      <point x="569" y="119" type="line"/>
      <point x="434" y="116" type="line"/>
      <point x="711" y="179" type="line"/>
      <point x="668" y="129" type="line"/>
      <point x="631" y="334" type="line"/>
      <point x="668" y="321" type="line"/>
      <point x="470" y="262" type="line"/>
      <point x="541" y="266" type="line"/>
      <point x="425" y="302" type="line"/>
      <point x="461" y="214" type="line"/>
      <point x="469" y="541" type="line"/>
      <point x="427" y="465" type="line"/>
      <point x="515" y="514" type="line"/>
      <point x="431" y="503" type="line"/>
    </contour>
  </outline>
</glyph>
<glyph name="paragraph" format="2">
  <advance width="588"/>
  <unicode hex="00B6"/>
  <outline>
    <contour>
      <point x="440" y="766" type="line"/>
      <point x="417" y="-50" type="line"/>
      <point x="354" y="0" type="line"/>
      <point x="588" y="0" type="line"/>
      <point x="519" y="-50" type="line"/>
      <point x="525" y="766" type="line"/>
      <point x="515" y="129" type="line"/>
      <point x="540" y="839" type="line"/>
      <point x="607" y="790" type="line"/>
      <point x="372" y="790" type="line"/>
      <point x="437" y="839" type="line"/>
      <point x="430" y="129" type="line"/>
    </contour>
    <contour>
      <point x="291" y="387" type="line"/>
      <point x="272" y="407" type="line"/>
      <point x="258" y="-50" type="line"/>
      <point x="195" y="0" type="line"/>
      <point x="429" y="0" type="line"/>
      <point x="360" y="-50" type="line"/>
      <point x="366" y="766" type="line"/>
      <point x="356" y="129" type="line"/>
      <point x="381" y="839" type="line"/>
      <point x="385" y="790" type="line"/>
      <point x="319" y="790" type="line"/>
      <point x="59" y="800" type="line"/>
      <point x="190" y="812" type="line"/>
      <point x="-5" y="689" type="line"/>
      <point x="39" y="776" type="line"/>
      <point x="22" y="402" type="line"/>
      <point x="-19" y="498" type="line"/>
      <point x="213" y="353" type="line"/>
      <point x="131" y="376" type="line"/>
    </contour>
  </outline>
</glyph>
<glyph name="ae" format="2">
  <advance width="805"/>
  <unicode hex="00E6"/>
  <outline>
    <contour>
      <point x="87" y="211" type="line"/>
      <point x="376" y="398" type="line"/>
      <point x="358" y="460" type="line"/>
      <point x="-33" y="231" type="line"/>
      <point x="70" y="318" type="line"/>
      <point x="-4" y="49" type="line"/>
      <point x="-96" y="138" type="line"/>
      <point x="326" y="-39" type="line"/>
      <point x="254" y="-38" type="line"/>
      <point x="514" y="147" type="line"/>
      <point x="529" y="95" type="line"/>
      <point x="128" y="184" type="line"/>
      <point x="210" y="155" type="line"/>
      <point x="220" y="352" type="line"/>
    </contour>
    <contour>
      <point x="373" y="535" type="line"/>
      <point x="547" y="508" type="line"/>
      <point x="334" y="642" type="line"/>
      <point x="508" y="600" type="line"/>
      <point x="9" y="603" type="line"/>
      <point x="83" y="652" type="line"/>
      <point x="64" y="358" type="line"/>
      <point x="-19" y="411" type="line"/>
      <point x="379" y="467" type="line"/>
      <point x="311" y="493" type="line"/>
      <point x="364" y="430" type="line"/>
      <point x="346" y="500" type="line"/>
      <point x="346" y="441" type="line"/>
      <point x="337" y="431" type="line"/>
      <point x="319" y="69" type="line"/>
      <point x="275" y="97" type="line"/>
      <point x="590" y="-40" type="line"/>
      <point x="414" y="-10" type="line"/>
      <point x="798" y="0" type="line"/>
      <point x="745" y="-32" type="line"/>
      <point x="738" y="210" type="line"/>
      <point x="772" y="183" type="line"/>
      <point x="553" y="157" type="line"/>
      <point x="645" y="148" type="line"/>
      <point x="459" y="190" type="line"/>
      <point x="490" y="109" type="line"/>
      <point x="500" y="477" type="line"/>
      <point x="456" y="415" type="line"/>
      <point x="557" y="472" type="line"/>
      <point x="475" y="455" type="line"/>
      <point x="676" y="412" type="line"/>
      <point x="594" y="454" type="line"/>
      <point x="584" y="257" type="line"/>
      <point x="717" y="390" type="line"/>
      <point x="416" y="223" type="line"/>
      <point x="430" y="160" type="line"/>
      <point x="836" y="362" type="line"/>
      <point x="734" y="291" type="line"/>
      <point x="808" y="560" type="line"/>
      <point x="900" y="468" type="line"/>
      <point x="488" y="647" type="line"/>
      <point x="625" y="656" type="line"/>
    </contour>
  </outline>
</glyph>
<glyph name="thorn" format="2">
  <advance width="604"/>
  <unicode hex="00FE"/>
  <outline>
    <contour>
      <point x="190" y="162" type="line"/>
      <point x="142" y="64" type="line"/>
      <point x="460" y="-55" type="line"/>
      <point x="231" y="-81" type="line"/>
      <point x="665" y="119" type="line"/>
      <point x="532" y="-49" type="line"/>
      <point x="570" y="584" type="line"/>
      <point x="666" y="522" type="line"/>
      <point x="254" y="637" type="line"/>
      <point x="329" y="636" type="line"/>
      <point x="147" y="433" type="line"/>
      <point x="131" y="472" type="line"/>
      <point x="442" y="442" type="line"/>
      <point x="378" y="488" type="line"/>
      <point x="387" y="82" type="line"/>
      <point x="426" y="174" type="line"/>
      <point x="343" y="109" type="line"/>
      <point x="442" y="129" type="line"/>
    </contour>
    <contour>
      <point x="32" y="-323" type="line"/>
      <point x="-10" y="-220" type="line"/>
      <point x="276" y="-220" type="line"/>
      <point x="231" y="-323" type="line"/>
      <point x="230" y="69" type="line"/>
      <point x="191" y="4" type="line"/>
      <point x="276" y="52" type="line"/>
      <point x="233" y="100" type="line"/>
      <point x="242" y="536" type="line"/>
      <point x="236" y="539" type="line"/>
      <point x="265" y="848" type="line"/>
      <point x="314" y="730" type="line"/>
      <point x="200" y="870" type="line"/>
      <point x="284" y="820" type="line"/>
      <point x="-50" y="823" type="line"/>
      <point x="25" y="872" type="line"/>
      <point x="6" y="578" type="line"/>
      <point x="-78" y="627" type="line"/>
      <point x="168" y="675" type="line"/>
      <point x="93" y="711" type="line"/>
    </contour>
  </outline>
</glyph>
<glyph name="eogonek" format="2">
  <advance width="546"/>
  <unicode hex="0119"/>
  <anchor x="233" y="0" name="bottom"/>
  <anchor x="414" y="0" name="ogonek"/>
  <anchor x="283" y="600" name="top"/>
  <outline>
    <contour>
      <point x="499" y="18" type="line"/>
      <point x="476" y="-32" type="line"/>
      <point x="469" y="210" type="line"/>
      <point x="503" y="183" type="line"/>
      <point x="284" y="157" type="line"/>
      <point x="376" y="148" type="line"/>
      <point x="190" y="182" type="line"/>
      <point x="221" y="109" type="line"/>
      <point x="231" y="477" type="line"/>
      <point x="187" y="415" type="line"/>
      <point x="288" y="472" type="line"/>
      <point x="206" y="455" type="line"/>
      <point x="407" y="412" type="line"/>
      <point x="325" y="454" type="line"/>
      <point x="315" y="257" type="line"/>
      <point x="448" y="390" type="line"/>
      <point x="147" y="223" type="line"/>
      <point x="161" y="160" type="line"/>
      <point x="567" y="362" type="line"/>
      <point x="465" y="291" type="line"/>
      <point x="539" y="560" type="line"/>
      <point x="631" y="468" type="line"/>
      <point x="219" y="647" type="line"/>
      <point x="356" y="656" type="line"/>
      <point x="-37" y="468" type="line"/>
      <point x="82" y="608" type="line"/>
      <point x="34" y="5" type="line"/>
      <point x="-9" y="104" type="line"/>
      <point x="321" y="-40" type="line"/>
      <point x="145" y="-10" type="line"/>
      <point x="377" y="-2" type="line"/>
      <point x="354" y="23" type="line"/>
      <point x="384" y="-38" type="line"/>
      <point x="396" y="12" type="line"/>
      <point x="308" y="-43" type="line"/>
      <point x="316" y="15" type="line"/>
      <point x="316" y="-198" type="line"/>
      <point x="302" y="-153" type="line"/>
      <point x="416" y="-221" type="line"/>
      <point x="374" y="-227" type="line"/>
      <point x="517" y="-189" type="line"/>
      <point x="504" y="-205" type="line"/>
      <point x="470" y="-105" type="line"/>
      <point x="496" y="-111" type="line"/>
      <point x="387" y="-148" type="line"/>
      <point x="432" y="-144" type="line"/>
      <point x="369" y="-107" type="line"/>
      <point x="386" y="-137" type="line"/>
      <point x="391" y="6" type="line"/>
      <point x="373" y="-75" type="line"/>
    </contour>
  </outline>
</glyph>
<glyph name="Lslash" format="2">
  <advance width="514"/>
  <unicode hex="0141"/>
  <outline>
    <component base="L"/>
    <contour>
      <point x="13" y="191" type="line"/>
      <point x="-81" y="224" type="line"/>
      <point x="234" y="345" type="line"/>
      <point x="487" y="433" type="line"/>
      <point x="375" y="348" type="line"/>
      <point x="324" y="528" type="line"/>
      <point x="463" y="524" type="line"/>
      <point x="168" y="415" type="line"/>
      <point x="-127" y="313" type="line"/>
      <point x="-46" y="394" type="line"/>
    </contour>
  </outline>
</glyph>
<glyph name="oe" format="2">
  <advance width="853"/>
  <unicode hex="0153"/>
  <outline>
    <contour>
      <point x="189" y="455" type="line"/>
      <point x="452" y="383" type="line"/>
      <point x="373" y="446" type="line"/>
      <point x="363" y="123" type="line"/>
      <point x="413" y="183" type="line"/>
      <point x="312" y="126" type="line"/>
      <point x="394" y="144" type="line"/>
      <point x="156" y="204" type="line"/>
      <point x="225" y="130" type="line"/>
      <point x="215" y="477" type="line"/>
      <point x="169" y="414" type="line"/>
      <point x="270" y="471" type="line"/>
    </contour>
    <contour>
      <point x="355" y="79" type="line"/>
      <point x="628" y="-40" type="line"/>
      <point x="452" y="-10" type="line"/>
      <point x="836" y="0" type="line"/>
      <point x="783" y="-32" type="line"/>
      <point x="776" y="210" type="line"/>
      <point x="810" y="183" type="line"/>
      <point x="591" y="157" type="line"/>
      <point x="683" y="148" type="line"/>
      <point x="497" y="190" type="line"/>
      <point x="528" y="109" type="line"/>
      <point x="538" y="477" type="line"/>
      <point x="494" y="415" type="line"/>
      <point x="595" y="472" type="line"/>
      <point x="513" y="455" type="line"/>
      <point x="714" y="412" type="line"/>
      <point x="632" y="454" type="line"/>
      <point x="622" y="257" type="line"/>
      <point x="755" y="390" type="line"/>
      <point x="454" y="223" type="line"/>
      <point x="468" y="160" type="line"/>
      <point x="874" y="362" type="line"/>
      <point x="772" y="291" type="line"/>
      <point x="846" y="560" type="line"/>
      <point x="938" y="468" type="line"/>
      <point x="526" y="647" type="line"/>
      <point x="663" y="656" type="line"/>
      <point x="411" y="535" type="line"/>
      <point x="510" y="524" type="line"/>
      <point x="175" y="653" type="line"/>
      <point x="338" y="662" type="line"/>
      <point x="-55" y="468" type="line"/>
      <point x="64" y="608" type="line"/>
      <point x="36" y="5" type="line"/>
      <point x="-66" y="133" type="line"/>
      <point x="393" y="-46" type="line"/>
      <point x="262" y="-53" type="line"/>
      <point x="565" y="89" type="line"/>
    </contour>
  </outline>
</glyph>
<glyph name="schwa" format="2">
  <advance width="536"/>
  <unicode hex="0259"/>
  <outline>
    <contour>
      <point x="330" y="145" type="line"/>
      <point x="129" y="188" type="line"/>
      <point x="211" y="146" type="line"/>
      <point x="221" y="343" type="line"/>
      <point x="88" y="210" type="line"/>
      <point x="389" y="377" type="line"/>
      <point x="375" y="440" type="line"/>
      <point x="-31" y="238" type="line"/>
      <point x="71" y="309" type="line"/>
      <point x="-3" y="40" type="line"/>
      <point x="-95" y="132" type="line"/>
      <point x="317" y="-47" type="line"/>
      <point x="180" y="-56" type="line"/>
      <point x="573" y="132" type="line"/>
      <point x="454" y="-8" type="line"/>
      <point x="502" y="595" type="line"/>
      <point x="545" y="496" type="line"/>
      <point x="215" y="640" type="line"/>
      <point x="391" y="610" type="line"/>
      <point x="7" y="600" type="line"/>
      <point x="60" y="632" type="line"/>
      <point x="67" y="390" type="line"/>
      <point x="33" y="417" type="line"/>
      <point x="252" y="443" type="line"/>
      <point x="160" y="452" type="line"/>
      <point x="346" y="418" type="line"/>
      <point x="315" y="491" type="line"/>
      <point x="305" y="123" type="line"/>
      <point x="349" y="185" type="line"/>
      <point x="248" y="128" type="line"/>
    </contour>
  </outline>
</glyph>
<glyph name="gravecomb" format="2">
  <advance width="306"/>
  <unicode hex="0300"/>
  <anchor x="176" y="600" name="_top"/>
  <outline>
    <contour>
      <point x="26" y="830" type="line"/>
      <point x="68" y="874" type="line"/>
      <point x="35" y="782" type="line"/>
      <point x="24" y="854" type="line"/>
      <point x="231" y="614" type="line"/>
      <point x="131" y="646" type="line"/>
      <point x="287" y="711" type="line"/>
      <point x="280" y="643" type="line"/>
      <point x="176" y="887" type="line"/>
      <point x="218" y="850" type="line"/>
    </contour>
  </outline>
</glyph>
<glyph name="ringcomb" format="2">
  <advance width="295"/>
  <unicode hex="030A"/>
  <anchor x="144" y="600" name="_top"/>
  <outline>
    <contour>
      <point x="51" y="840" type="line"/>
      <point x="50" y="663" type="line"/>
      <point x="25" y="699" type="line"/>
      <point x="180" y="636" type="line"/>
      <point x="142" y="634" type="line"/>
      <point x="263" y="695" type="line"/>
      <point x="234" y="660" type="line"/>
      <point x="247" y="838" type="line"/>
      <point x="263" y="802" type="line"/>
      <point x="112" y="866" type="line"/>
      <point x="160" y="869" type="line"/>
      <point x="25" y="801" type="line"/>
    </contour>
    <contour>
      <point x="102" y="793" type="line"/>
      <point x="192" y="777" type="line"/>
      <point x="175" y="792" type="line"/>
      <point x="177" y="709" type="line"/>
      <point x="192" y="732" type="line"/>
      <point x="132" y="707" type="line"/>
      <point x="193" y="715" type="line"/>
      <point x="103" y="730" type="line"/>
      <point x="113" y="714" type="line"/>
      <point x="121" y="805" type="line"/>
      <point x="95" y="770" type="line"/>
      <point x="155" y="796" type="line"/>
    </contour>
  </outline>
</glyph>
<glyph name="hungarumlautcomb" format="2">
  <advance width="518"/>
  <unicode hex="030B"/>
  <anchor x="215" y="600" name="_top"/>
  <outline>
    <contour>
      <point x="497" y="831" type="line"/>
      <point x="305" y="845" type="line"/>
      <point x="347" y="885" type="line"/>
      <point x="225" y="637" type="line"/>
      <point x="214" y="696" type="line"/>
      <point x="394" y="649" type="line"/>
      <point x="284" y="608" type="line"/>
      <point x="493" y="853" type="line"/>
      <point x="482" y="783" type="line"/>
      <point x="450" y="875" type="line"/>
    </contour>
    <contour>
      <point x="298" y="831" type="line"/>
      <point x="106" y="845" type="line"/>
      <point x="148" y="885" type="line"/>
      <point x="26" y="637" type="line"/>
      <point x="15" y="696" type="line"/>
      <point x="195" y="649" type="line"/>
      <point x="85" y="608" type="line"/>
      <point x="294" y="853" type="line"/>
      <point x="283" y="783" type="line"/>
      <point x="251" y="875" type="line"/>
    </contour>
  </outline>
</glyph>
<glyph name="caroncomb" format="2">
  <advance width="366"/>
  <unicode hex="030C"/>
  <anchor x="183" y="600" name="_top"/>
  <outline>
    <contour>
      <point x="223" y="619" type="line"/>
      <point x="143" y="619" type="line"/>
      <point x="330" y="776" type="line"/>
      <point x="331" y="750" type="line"/>
      <point x="220" y="857" type="line"/>
      <point x="296" y="877" type="line"/>
      <point x="168" y="736" type="line"/>
      <point x="198" y="736" type="line"/>
      <point x="70" y="877" type="line"/>
      <point x="148" y="857" type="line"/>
      <point x="34" y="750" type="line"/>
      <point x="36" y="776" type="line"/>
    </contour>
  </outline>
</glyph>
<glyph name="commaaccentcomb" format="2">
  <advance width="263"/>
  <unicode hex="0326"/>
  <anchor x="143" y="0" name="_bottom"/>
  <outline>
    <contour>
      <point x="241" y="-74" type="line"/>
      <point x="48" y="-74" type="line"/>
      <point x="75" y="-35" type="line"/>
      <point x="44" y="-305" type="line"/>
      <point x="23" y="-247" type="line"/>
      <point x="190" y="-271" type="line"/>
      <point x="99" y="-320" type="line"/>
      <point x="231" y="-50" type="line"/>
      <point x="231" y="-124" type="line"/>
      <point x="189" y="-35" type="line"/>
    </contour>
  </outline>
</glyph>
<glyph name="ogonekcomb" format="2">
  <advance width="278"/>
  <unicode hex="0328"/>
  <anchor x="117" y="0" name="_ogonek"/>
  <outline>
    <contour>
      <point x="204" y="30" type="line"/>
      <point x="73" y="87" type="line"/>
      <point x="143" y="102" type="line"/>
      <point x="37" y="-62" type="line"/>
      <point x="49" y="-27" type="line"/>
      <point x="56" y="-199" type="line"/>
      <point x="32" y="-153" type="line"/>
      <point x="146" y="-221" type="line"/>
      <point x="108" y="-227" type="line"/>
      <point x="245" y="-193" type="line"/>
      <point x="232" y="-209" type="line"/>
      <point x="198" y="-109" type="line"/>
      <point x="224" y="-115" type="line"/>
      <point x="121" y="-148" type="line"/>
      <point x="162" y="-144" type="line"/>
      <point x="99" y="-107" type="line"/>
      <point x="126" y="-138" type="line"/>
      <point x="132" y="-27" type="line"/>
      <point x="111" y="-89" type="line"/>
      <point x="195" y="84" type="line"/>
    </contour>
  </outline>
</glyph>
<glyph name="quoteleft" format="2">
  <advance width="250"/>
  <unicode hex="2018"/>
  <outline>
    <contour>
      <point x="91" y="788" type="line"/>
      <point x="141" y="762" type="line"/>
      <point x="151" y="929" type="line"/>
      <point x="178" y="863" type="line"/>
      <point x="54" y="879" type="line"/>
      <point x="99" y="936" type="line"/>
      <point x="20" y="607" type="line"/>
      <point x="-22" y="708" type="line"/>
      <point x="88" y="564" type="line"/>
      <point x="29" y="629" type="line"/>
      <point x="259" y="630" type="line"/>
      <point x="207" y="597" type="line"/>
      <point x="217" y="835" type="line"/>
      <point x="257" y="792" type="line"/>
    </contour>
  </outline>
</glyph>
<glyph name="guilsinglleft" format="2">
  <advance width="289"/>
  <unicode hex="2039"/>
  <outline>
    <contour>
      <point x="-86" y="409" type="line"/>
      <point x="246" y="47" type="line"/>
      <point x="174" y="53" type="line"/>
      <point x="302" y="189" type="line"/>
      <point x="302" y="127" type="line"/>
      <point x="83" y="344" type="line"/>
      <point x="83" y="282" type="line"/>
      <point x="310" y="520" type="line"/>
      <point x="308" y="452" type="line"/>
      <point x="169" y="577" type="line"/>
      <point x="235" y="581" type="line"/>
      <point x="-84" y="205" type="line"/>
    </contour>
  </outline>
</glyph>
<glyph name="trademark" format="2">
  <advance width="369"/>
  <unicode hex="2122"/>
  <outline>
    <contour>
      <point x="36" y="725" type="line"/>
      <point x="50" y="752" type="line"/>
      <point x="35" y="580" type="line"/>
      <point x="25" y="600" type="line"/>
      <point x="112" y="600" type="line"/>
      <point x="95" y="580" type="line"/>
      <point x="107" y="781" type="line"/>
      <point x="103" y="767" type="line"/>
      <point x="59" y="741" type="line"/>
      <point x="66" y="756" type="line"/>
      <point x="69" y="732" type="line"/>
      <point x="77" y="742" type="line"/>
      <point x="60" y="736" type="line"/>
    </contour>
    <contour>
      <point x="169" y="790" type="line"/>
      <point x="1" y="790" type="line"/>
      <point x="19" y="800" type="line"/>
      <point x="14" y="729" type="line"/>
      <point x="-6" y="737" type="line"/>
      <point x="82" y="740" type="line"/>
      <point x="164" y="740" type="line"/>
      <point x="144" y="732" type="line"/>
      <point x="148" y="803" type="line"/>
    </contour>
    <contour>
      <point x="288" y="790" type="line"/>
      <point x="300" y="794" type="line"/>
      <point x="252" y="695" type="line"/>
      <point x="269" y="695" type="line"/>
      <point x="232" y="794" type="line"/>
      <point x="247" y="790" type="line"/>
      <point x="147" y="790" type="line"/>
      <point x="155" y="802" type="line"/>
      <point x="151" y="731" type="line"/>
      <point x="131" y="740" type="line"/>
      <point x="184" y="740" type="line"/>
      <point x="172" y="767" type="line"/>
      <point x="156" y="580" type="line"/>
      <point x="140" y="600" type="line"/>
      <point x="227" y="600" type="line"/>
      <point x="216" y="580" type="line"/>
      <point x="222" y="725" type="line"/>
      <point x="215" y="712" type="line"/>
      <point x="229" y="712" type="line"/>
      <point x="220" y="718" type="line"/>
      <point x="226" y="701" type="line"/>
      <point x="257" y="624" type="line"/>
      <point x="239" y="645" type="line"/>
      <point x="274" y="645" type="line"/>
      <point x="250" y="624" type="line"/>
      <point x="291" y="701" type="line"/>
      <point x="300" y="720" type="line"/>
      <point x="291" y="712" type="line"/>
      <point x="305" y="712" type="line"/>
      <point x="298" y="725" type="line"/>
      <point x="284" y="580" type="line"/>
      <point x="274" y="600" type="line"/>
      <point x="361" y="600" type="line"/>
      <point x="344" y="580" type="line"/>
      <point x="354" y="798" type="line"/>
      <point x="356" y="790" type="line"/>
    </contour>
  </outline>
</glyph>
<glyph name="ogonekcomb.alt" format="2">
  <advance width="284"/>
  <anchor x="148" y="0" name="_ogonek"/>
  <outline>
    <contour>
      <point x="238" y="-205" type="line"/>
      <point x="204" y="-105" type="line"/>
      <point x="230" y="-111" type="line"/>
      <point x="121" y="-148" type="line"/>
      <point x="166" y="-144" type="line"/>
      <point x="103" y="-107" type="line"/>
      <point x="120" y="-137" type="line"/>
      <point x="125" y="6" type="line"/>
      <point x="107" y="-75" type="line"/>
      <point x="233" y="38" type="line"/>
      <point x="217" y="6" type="line"/>
      <point x="135" y="69" type="line"/>
      <point x="88" y="23" type="line"/>
      <point x="118" y="-38" type="line"/>
      <point x="130" y="12" type="line"/>
      <point x="42" y="-43" type="line"/>
      <point x="50" y="15" type="line"/>
      <point x="50" y="-198" type="line"/>
      <point x="36" y="-153" type="line"/>
      <point x="150" y="-221" type="line"/>
      <point x="108" y="-227" type="line"/>
      <point x="251" y="-189" type="line"/>
    </contour>
  </outline>
</glyph>
<glyph name="sectionbowl" format="2">
  <advance width="600"/>
  <outline>
    <contour>
      <point x="301" y="151" type="line"/>
      <point x="421" y="70" type="line"/>
      <point x="374" y="192" type="line"/>
      <point x="360" y="-22" type="line"/>
      <point x="408" y="53" type="line"/>
      <point x="317" y="6" type="line"/>
      <point x="354" y="11" type="line"/>
      <point x="57" y="51" type="line"/>
      <point x="96" y="107" type="line"/>
      <point x="44" y="-184" type="line"/>
      <point x="24" y="-143" type="line"/>
      <point x="350" y="-157" type="line"/>
      <point x="317" y="-162" type="line"/>
      <point x="563" y="-36" type="line"/>
      <point x="523" y="-129" type="line"/>
      <point x="571" y="273" type="line"/>
      <point x="607" y="156" type="line"/>
      <point x="326" y="274" type="line"/>
      <point x="461" y="245" type="line"/>
      <point x="165" y="226" type="line"/>
      <point x="260" y="217" type="line"/>
      <point x="189" y="276" type="line"/>
      <point x="202" y="214" type="line"/>
      <point x="214" y="430" type="line"/>
      <point x="187" y="344" type="line"/>
      <point x="295" y="416" type="line"/>
      <point x="252" y="471" type="line"/>
      <point x="13" y="339" type="line"/>
      <point x="49" y="432" type="line"/>
      <point x="17" y="118" type="line"/>
      <point x="-2" y="214" type="line"/>
      <point x="196" y="91" type="line"/>
      <point x="20" y="97" type="line"/>
      <point x="424" y="129" type="line"/>
    </contour>
  </outline>
</glyph>
